<svg xmlns="http://www.w3.org/2000/svg" viewBox="0 0 32 40" x="0px" y="0px"><title>Artboard 7</title><g data-name="Layer 15"><path d="M16,31a1,1,0,0,1-1-1V18.35a1,1,0,0,1,2,0V30A1,1,0,0,1,16,31Z"/><path d="M16,14.65a1,1,0,0,1-1-1V2a1,1,0,0,1,2,0V13.65A1,1,0,0,1,16,14.65Z"/><path d="M26,31.5a1,1,0,0,1-1-1V14.34a1,1,0,0,1,2,0V30.5A1,1,0,0,1,26,31.5Z"/><path d="M26,10.64a1,1,0,0,1-1-1V2.5a1,1,0,0,1,2,0V9.64A1,1,0,0,1,26,10.64Z"/><path d="M6,31a1,1,0,0,1-1-1V8.35a1,1,0,0,1,2,0V30A1,1,0,0,1,6,31Z"/><path d="M6,4.65a1,1,0,0,1-1-1V2A1,1,0,0,1,7,2V3.65A1,1,0,0,1,6,4.65Z"/><path d="M6,9.35A3.35,3.35,0,1,1,9.35,6,3.35,3.35,0,0,1,6,9.35Zm0-4.7A1.35,1.35,0,1,0,7.35,6,1.34,1.34,0,0,0,6,4.65Z"/><path d="M16,19.35A3.35,3.35,0,1,1,19.35,16,3.35,3.35,0,0,1,16,19.35Zm0-4.7A1.35,1.35,0,1,0,17.35,16,1.34,1.34,0,0,0,16,14.65Z"/><path d="M26,15.34A3.35,3.35,0,1,1,29.35,12,3.35,3.35,0,0,1,26,15.34Zm0-4.7A1.35,1.35,0,1,0,27.35,12,1.34,1.34,0,0,0,26,10.64Z"/></g><text x="0" y="47" fill="#000000" font-size="5px" font-weight="bold" font-family="'Helvetica Neue', Helvetica, Arial-Unicode, Arial, Sans-serif">Created by Bagus Kusnandar</text><text x="0" y="52" fill="#000000" font-size="5px" font-weight="bold" font-family="'Helvetica Neue', Helvetica, Arial-Unicode, Arial, Sans-serif">from the Noun Project</text></svg>