<svg xmlns="http://www.w3.org/2000/svg" viewBox="0 0 64 80" x="0px" y="0px"><g><path d="M56,53.414V2H8V62H47.414Zm-8,5.172V54h4.586ZM10,4H54V52H47a1,1,0,0,0-1,1v7H10Z"/><path d="M52,6H12V24H52ZM50,22H14V8H50Z"/><path d="M16,50a4,4,0,1,0,4,4A4,4,0,0,0,16,50Zm0,6a2,2,0,1,1,2-2A2,2,0,0,1,16,56Z"/><path d="M32,50A12,12,0,1,0,20,38,12.013,12.013,0,0,0,32,50Zm0-2a10.011,10.011,0,0,1-9.953-9.079c2.287-.266,7.71-1.449,9.953-6.643,2.243,5.194,7.666,6.377,9.953,6.643A10.011,10.011,0,0,1,32,48Zm9.94-11.078c-2.468-.3-8.363-1.769-8.9-8.867A10.017,10.017,0,0,1,41.94,36.922ZM30.957,28.055c-.534,7.1-6.429,8.565-8.9,8.867A10.017,10.017,0,0,1,30.957,28.055Z"/><rect x="29" y="39" width="2" height="2"/><rect x="33" y="39" width="2" height="2"/><path d="M32,44c-4.119,0-5-3.117-5.032-3.25l-1.938.492C25.441,42.888,27.427,46,32,46s6.559-3.112,6.97-4.758l-1.94-.484C37.022,40.79,36.171,44,32,44Z"/><rect x="20" y="26" width="3" height="2"/><rect x="12" y="34" width="4" height="2"/><rect x="41" y="26" width="11" height="2"/><rect x="45" y="30" width="7" height="2"/><rect x="46" y="34" width="6" height="2"/><rect x="22" y="56" width="21" height="2"/><rect x="22" y="52" width="13" height="2"/><rect x="37" y="52" width="4" height="2"/><rect x="12" y="46" width="7" height="2"/><rect x="12" y="42" width="5" height="2"/><rect x="43" y="48" width="9" height="2"/><rect x="46" y="44" width="6" height="2"/><rect x="48" y="39" width="4" height="2"/><path d="M19,12h.279l1.772,5.316a1,1,0,0,0,1.9,0L24.721,12H25v8h2V11a1,1,0,0,0-1-1H24a1,1,0,0,0-.949.684L22,13.838l-1.051-3.154A1,1,0,0,0,20,10H18a1,1,0,0,0-1,1v9h2Z"/><path d="M31.469,18h4.062l.493,2.217,1.952-.434-2-9A1,1,0,0,0,35,10H32a1,1,0,0,0-.976.783l-2,9,1.952.434ZM32.8,12h1.4l.889,4H31.913Z"/><path d="M41,20h6a1,1,0,0,0,1-1V15a1,1,0,0,0-1-1H44v2h2v2H42V12h6V10H41a1,1,0,0,0-1,1v8A1,1,0,0,0,41,20Z"/><path d="M18,26H12v6h6Zm-2,4H14V28h2Z"/><rect x="12" y="38" width="4" height="2"/></g><text x="0" y="79" fill="#000000" font-size="5px" font-weight="bold" font-family="'Helvetica Neue', Helvetica, Arial-Unicode, Arial, Sans-serif">Created by Smalllike</text><text x="0" y="84" fill="#000000" font-size="5px" font-weight="bold" font-family="'Helvetica Neue', Helvetica, Arial-Unicode, Arial, Sans-serif">from the Noun Project</text></svg>