<svg xmlns="http://www.w3.org/2000/svg" xmlns:xlink="http://www.w3.org/1999/xlink" version="1.1" x="0px" y="0px" viewBox="0 0 400 500" style="enable-background:new 0 0 400 400;" xml:space="preserve"><g><g><path d="M199.999,236.026c-31.838,0-57.743-25.903-57.743-57.743c0-31.839,25.904-57.743,57.743-57.743    c31.839,0,57.743,25.904,57.743,57.743C257.742,210.123,231.838,236.026,199.999,236.026z M199.999,128.239    c-27.593,0-50.043,22.451-50.043,50.044c0,27.593,22.451,50.043,50.043,50.043c27.594,0,50.044-22.45,50.044-50.043    C250.043,150.69,227.593,128.239,199.999,128.239z"/><path d="M297.125,322.661H102.874c-2.125,0-3.85-1.724-3.85-3.85v-6.922c0-36.084,29.358-65.442,65.442-65.442h71.066    c36.085,0,65.442,29.358,65.442,65.442v6.922C300.975,320.938,299.25,322.661,297.125,322.661z M106.723,314.962h186.552v-3.072    c0-31.839-25.904-57.743-57.743-57.743h-71.066c-31.839,0-57.743,25.904-57.743,57.743V314.962z"/></g></g><text x="0" y="415" fill="#000000" font-size="5px" font-weight="bold" font-family="'Helvetica Neue', Helvetica, Arial-Unicode, Arial, Sans-serif">Created by merijn</text><text x="0" y="420" fill="#000000" font-size="5px" font-weight="bold" font-family="'Helvetica Neue', Helvetica, Arial-Unicode, Arial, Sans-serif">from the Noun Project</text></svg>